<?xml version="1.0" encoding="UTF-8"?>
<svg width="400px" height="125px" viewBox="0 0 400 125" version="1.1" xmlns="http://www.w3.org/2000/svg" xmlns:xlink="http://www.w3.org/1999/xlink">
    <!-- Generator: Sketch 60 (88103) - https://sketch.com -->
    <title>Artboard</title>
    <desc>Created with Sketch.</desc>
    <g id="Artboard" stroke="none" stroke-width="1" fill="none" fill-rule="evenodd">
        <g id="HuskyCI-logo" transform="translate(19.000000, 18.000000)">
            <g id="Group" transform="translate(0.000000, 8.000000)" fill="#000000" fill-rule="nonzero">
                <path d="M0.811,65.7 L0.811,0.257 L14.44,0.257 L14.44,15.665 C15.872,11.517 18.575,9.442 22.551,9.442 C26.056,9.442 28.834,10.572 30.884,12.831 C32.933,15.09 33.958,18.455 33.958,22.923 L33.958,65.7 L20.662,65.7 L20.662,27.405 C20.662,27.257 20.668,26.967 20.681,26.534 C20.693,26.102 20.7,25.762 20.7,25.515 C20.7,21.614 19.601,19.663 17.403,19.663 C16.761,19.663 16.107,19.978 15.441,20.608 C14.774,21.237 14.441,22.256 14.441,23.663 L14.441,65.7 L0.811,65.7 Z" id="Path"></path>
                <path d="M59.365,10.146 L72.549,10.146 L72.549,65.7 L59.29,65.7 L59.29,59.774 C58.253,62.391 57.061,64.144 55.716,65.033 C54.37,65.922 52.71,66.366 50.735,66.366 C48.859,66.366 47.241,66.089 45.883,65.533 C44.525,64.978 43.463,64.274 42.697,63.422 C41.931,62.57 41.333,61.459 40.901,60.089 C40.468,58.719 40.191,57.392 40.068,56.108 C39.944,54.825 39.882,53.293 39.882,51.516 L39.882,10.147 L53.215,10.147 L53.215,48.849 C53.215,51.664 53.382,53.547 53.715,54.497 C54.048,55.448 54.868,55.923 56.178,55.923 C56.672,55.923 57.11,55.83 57.493,55.645 C57.875,55.459 58.172,55.169 58.382,54.775 C58.591,54.38 58.765,53.997 58.901,53.627 C59.036,53.257 59.129,52.77 59.179,52.164 C59.228,51.56 59.259,51.084 59.271,50.738 C59.283,50.393 59.29,49.911 59.29,49.294 C59.29,49.096 59.29,48.948 59.29,48.849 L59.365,10.146 Z" id="Path"></path>
                <path d="M96.363,26.701 L96.288,24.59 C96.288,24.096 96.251,23.603 96.177,23.109 C96.103,22.615 95.967,22.103 95.77,21.572 C95.572,21.041 95.276,20.615 94.881,20.294 C94.486,19.973 94.016,19.812 93.474,19.812 C92.56,19.812 91.863,20.072 91.381,20.59 C90.9,21.109 90.659,21.837 90.659,22.775 C90.659,24.751 91.45,26.318 93.029,27.479 L101.215,33.479 C102.844,34.689 104.252,35.96 105.437,37.293 C106.622,38.626 107.517,39.843 108.122,40.941 C108.726,42.04 109.208,43.219 109.566,44.478 C109.923,45.737 110.14,46.762 110.214,47.552 C110.288,48.342 110.325,49.231 110.325,50.218 C110.325,55.528 108.825,59.545 105.825,62.273 C102.825,65.002 98.757,66.366 93.622,66.366 C82.659,66.366 77.178,60.786 77.178,49.625 L77.252,45.218 L90.511,45.218 L90.585,51.737 C90.585,52.626 90.69,53.361 90.9,53.941 C91.109,54.521 91.4,54.935 91.77,55.181 C92.141,55.428 92.479,55.588 92.789,55.663 C93.098,55.737 93.45,55.774 93.845,55.774 C95.623,55.774 96.512,54.329 96.512,51.441 C96.512,50.7 96.499,50.163 96.475,49.83 C96.45,49.497 96.358,49.003 96.197,48.349 C96.036,47.695 95.777,47.121 95.42,46.627 C95.061,46.133 94.543,45.528 93.864,44.812 C93.184,44.097 92.326,43.343 91.29,42.553 L84.216,37.109 C82.685,35.923 81.444,34.77 80.494,33.646 C79.543,32.522 78.851,31.338 78.42,30.09 C77.988,28.843 77.711,27.72 77.587,26.719 C77.463,25.719 77.402,24.429 77.402,22.849 C77.402,20.01 78.216,17.553 79.846,15.479 C81.475,13.405 83.506,11.886 85.938,10.923 C88.369,9.96 91.006,9.479 93.845,9.479 C99.054,9.479 103.049,10.8 105.826,13.441 C108.604,16.084 109.993,20.158 109.993,25.663 L109.993,26.7 L96.363,26.7 L96.363,26.701 Z" id="Path"></path>
                <polygon id="Path" points="114.844 65.7 114.844 0.183 127.955 0.183 127.955 29.293 134.325 10.146 148.065 10.146 139.732 34.293 150.324 65.699 136.214 65.699 127.955 39.514 127.955 65.7"></polygon>
                <path d="M151.547,75.556 L151.547,66.749 L155.695,66.749 C157.078,66.749 158.022,66.569 158.528,66.207 C159.034,65.845 159.287,65.225 159.287,64.345 C159.287,63.853 159.225,63.181 159.102,62.327 L150.547,10.109 L163.62,10.109 L166.065,36.489 L166.954,49.369 L167.991,36.489 L170.954,10.109 L184.102,10.109 L173.806,68.883 C173.707,69.607 173.565,70.266 173.38,70.862 C173.195,71.457 173.01,71.973 172.824,72.414 C172.639,72.853 172.386,73.242 172.065,73.578 C171.744,73.914 171.46,74.192 171.213,74.412 C170.966,74.631 170.62,74.82 170.176,74.975 C169.732,75.13 169.367,75.246 169.084,75.324 C168.8,75.402 168.38,75.46 167.825,75.498 C167.269,75.537 166.831,75.557 166.51,75.557 C166.189,75.557 165.707,75.557 165.066,75.557 L151.547,75.557 L151.547,75.556 Z" id="Path"></path>
                <path d="M218.619,37.771 L218.619,49.998 C218.619,55.63 217.161,59.767 214.248,62.407 C211.335,65.047 207.261,66.367 202.027,66.367 C197.384,66.367 193.607,64.911 190.694,62 C187.78,59.09 186.323,54.954 186.323,49.592 L186.323,19.576 C186.323,13.158 187.613,8.359 190.193,5.177 C192.773,1.995 196.817,0.404 202.323,0.404 C204.569,0.404 206.642,0.709 208.545,1.318 C210.446,1.928 212.131,2.829 213.601,4.02 C215.07,5.211 216.223,6.775 217.064,8.711 C217.903,10.647 218.323,12.874 218.323,15.393 L218.323,26.807 L205.434,26.807 L205.434,19.293 C205.434,15.42 204.397,13.484 202.324,13.484 C201.089,13.484 200.274,13.911 199.88,14.764 C199.484,15.617 199.287,16.802 199.287,18.318 L199.287,48.902 C199.287,50.229 199.565,51.38 200.12,52.354 C200.675,53.33 201.41,53.817 202.324,53.817 C203.163,53.817 203.891,53.458 204.509,52.74 C205.126,52.022 205.435,50.743 205.435,48.902 L205.435,37.772 L218.619,37.772 L218.619,37.771 Z" id="Path"></path>
                <polygon id="Path" points="222.914 65.636 222.914 0.932 235.508 0.932 235.508 65.636"></polygon>
            </g>
            <g id="Group" transform="translate(252.000000, 0.000000)">
                <path d="M73.5,0.224 C74.25,3.322 74.875,5.625 75.125,14 C79.75,11.75 83.5,10.625 85.75,10.125 C85.5,18.5 80.875,28.75 80.875,28.75 C80.875,28.75 89.875,37.5 94.75,42.375 C92.375,43.125 92.375,45.25 92.5,48 C89.1538462,47.5384615 88.8964497,47.183432 88.87665,47.131543 C88.875,47.125 88.875,47.125 88.625,45.375 C82,34.25 69.625,36.375 69.625,36.375 C69.625,36.375 69.75,36.375 69.625,38.125 C46.5,40.25 56.25,59.125 56.25,59.125 C56.25,59.125 57.875,58.375 58,56.5 C78.125,80.75 58,93.125 58,93.125 C56.125,78.125 49.25,75.875 49.25,75.875 C49.25,75.875 49.125,76.5 49.25,82.25 C26.125,55.25 0.75,60.125 0.75,60.125 C10.875,34.125 40.625,22.875 46.25,21.375 C51.75,9.875 68.125,2.125 73.5,0.224 Z M41.25,27.625 C41.25,27.625 19,36.875 7.5,56.25 C15.375,56.75 26.375,58.25 32.5,63.25 C30.625,58.625 29.25,52.875 30.625,44.25 C28.5,45.375 26.5,46.75 25,48.5 C25.625,45 26.375,39.25 41.25,27.625 Z M71.875,4.75 C69.25,5.375 53.5,10.75 55.125,24.75 C55.125,24.75 57.875,18.625 61.625,15.5 C60.5,18.875 59.875,22.125 60.5,25.375 C61.625,23.5 62.75,22.5 63.25,21.875 C62.75,24.25 63.25,26.25 63.25,26.25 C63.25,26.25 72.875,30.25 71.875,4.75 Z" id="Combined-Shape" fill="#000000" fill-rule="nonzero"></path>
                <path d="M85.875,46.125 C85.875,46.125 78.125,37.375 66.875,44 C72.25,44.375 77.75,45.072 79.625,47.224 C79.445,42.169 79.445,42.169 79.445,42.169" id="Path" stroke="#000000"></path>
                <path d="M76.375,41.568 L76.375,45.419 C76.375,45.419 78.5,45.698 79.625,47.224 C79.445,42.169 79.445,42.169 79.445,42.169 C79.445,42.169 79.625,42.136 76.375,41.568 Z" id="Path" fill="#000000" fill-rule="nonzero"></path>
                <path d="M92.5,48 L111,59.375 C111,59.375 107.75,68.875 94,73.125 C88.875,71.625 76.711,66.881 66.918,75.753 C66.499,72.5 65.75,66 58,56.5 C57.736,57.562 58.375,57.125 56.25,59.125 C54.383,53.031 49.5,40.5 69.625,38.125 C69.625,36.375 69.625,36.375 69.625,36.375 C69.625,36.375 82.625,34.25 88.625,45.375 C88.875,47.125 88.875,47.125 88.875,47.125 C88.875,47.125 90.125,47.625 92.5,48 Z" id="Path" stroke="#000000"></path>
                <path d="M92.119,72.551 C92.119,72.551 84,69.666 70.917,69.916" id="Path" stroke="#000000"></path>
                <path d="M104.066,55.112 C104.066,55.112 103.096,62.347 106.756,65.632 C108.182,64.029 110.332,61.126 110.999,59.376 C104.066,55.112 104.066,55.112 104.066,55.112 Z" id="Path" fill="#000000" fill-rule="nonzero"></path>
            </g>
        </g>
    </g>
</svg>